<svg width="78" height="68" viewBox="0 0 78 68" fill="none" xmlns="http://www.w3.org/2000/svg">
<path d="M74.6469 11.8962H3.35251C1.49999 11.8962 0 13.2507 0 14.9235V64.9739C0 66.6455 1.50003 68 3.35251 68H74.6469C76.4981 68 78 66.6455 78 64.9739V14.9235C78 13.2507 76.4968 11.8962 74.6469 11.8962ZM58.8706 42.2846C58.8706 44.1875 57.1601 45.7344 55.0502 45.7344H45.785V54.1013C45.785 56.0071 44.0726 57.5517 41.9627 57.5517H36.4704C34.3591 57.5517 32.648 56.0071 32.648 54.1013V45.7344H23.3828C21.2716 45.7344 19.5605 44.1881 19.5605 42.2846L19.5611 37.3252C19.5611 35.4176 21.2716 33.8736 23.3835 33.8736H32.6486V25.5056C32.6486 23.6009 34.3591 22.0558 36.471 22.0558H41.9633C44.0726 22.0558 45.7857 23.6003 45.7857 25.5056V33.8736H55.0508C57.1601 33.8736 58.8713 35.4176 58.8713 37.3252L58.8706 42.2846Z" fill="white"/>
<path d="M48.3864 0H29.6146C23.4166 0 18.3771 4.55292 18.3771 10.1467H24.9883C24.9883 7.84237 27.0633 5.96865 29.6152 5.96865H48.3871C50.9389 5.96865 53.0159 7.84237 53.0159 10.1467H59.626C59.626 4.55174 54.5839 0 48.3872 0H48.3864Z" fill="white"/>
</svg>
