<svg width="87" height="78" viewBox="0 0 87 78" fill="none" xmlns="http://www.w3.org/2000/svg">
<path d="M26.8253 0.742225C24.7344 -0.587608 21.8869 -0.0814586 20.4635 1.86834L11.7733 13.7652L7.60147 10.346C5.70199 8.79041 2.80858 8.96206 1.13903 10.7352C-0.52916 12.5064 -0.343717 15.2032 1.55574 16.7618L8.24328 22.2415C9.39362 23.1847 10.8581 23.6984 12.3524 23.6984C12.6066 23.6984 12.8622 23.6839 13.1164 23.6531C14.8669 23.4469 16.45 22.5352 17.4588 21.1545L28.0329 6.67529C29.457 4.72554 28.9156 2.07082 26.8253 0.742225Z" fill="white"/>
<path d="M26.8253 27.8929C24.7344 26.5631 21.8869 27.0693 20.4635 29.0191L11.7733 40.9178L7.60147 37.4967C5.70199 35.9424 2.80858 36.114 1.13903 37.8853C-0.52916 39.6572 -0.343717 42.3546 1.55574 43.9119L8.24328 49.3935C9.39362 50.3367 10.8581 50.8491 12.3524 50.8491C12.6066 50.8491 12.8622 50.8321 13.1164 50.8013C14.8669 50.597 16.45 49.6853 17.4588 48.3032L28.0329 33.8247C29.457 31.8749 28.9156 29.2204 26.8253 27.8929Z" fill="white"/>
<path d="M26.8253 55.0443C24.7344 53.7157 21.8869 54.2212 20.4635 56.1691L11.7733 68.0685L7.60147 64.6468C5.70199 63.0925 2.80858 63.2629 1.13903 65.036C-0.52916 66.8079 -0.343717 69.506 1.55574 71.0621L8.24328 76.5444C9.39362 77.4882 10.8581 78 12.3524 78C12.6066 78 12.8622 77.9837 13.1164 77.9529C14.8669 77.7473 16.45 76.8362 17.4588 75.4542L28.0329 60.9763C29.457 59.0284 28.9156 56.3713 26.8253 55.0445L26.8253 55.0443Z" fill="white"/>
<path d="M39.0483 20.1409H81.1997C84.4026 20.1409 87 17.7215 87 14.7322C87 11.7475 84.4013 9.32483 81.1997 9.32483H39.0483C35.8454 9.32483 33.248 11.7469 33.248 14.7322C33.248 17.7201 35.8454 20.1409 39.0483 20.1409Z" fill="white"/>
<path d="M81.1997 36.4739H39.0483C35.8454 36.4739 33.248 38.8959 33.248 41.8826C33.248 44.8699 35.8454 47.2913 39.0483 47.2913H81.1997C84.4026 47.2913 87 44.8699 87 41.8826C87 38.8972 84.4026 36.4739 81.1997 36.4739Z" fill="white"/>
<path d="M81.1997 63.6236H39.0483C35.8454 63.6236 33.248 66.047 33.248 69.0323C33.248 72.0197 35.8454 74.441 39.0483 74.441L81.1997 74.4404C84.4026 74.4404 87 72.0203 87 69.0317C87 66.047 84.4026 63.6236 81.1997 63.6236Z" fill="white"/>
</svg>
