<svg width="106" height="92" viewBox="0 0 106 92" fill="none" xmlns="http://www.w3.org/2000/svg">
<path d="M11.9573 56.4073L11.9573 56.4073L11.9495 56.4009C4.69227 50.4713 0.5 41.4059 0.5 31.548C0.5 14.3822 13.2069 0.5 28.7298 0.5C38.4758 0.5 47.4348 6.03102 52.5624 14.9565L52.9959 15.7109L53.4295 14.9566C58.5597 6.03118 67.5234 0.5 77.2782 0.5C92.7971 0.5 105.5 14.384 105.5 31.548C105.5 41.4131 101.308 50.4785 94.0138 56.4316L94.0137 56.4315L94.0058 56.4382L52.9976 91.3434L11.9573 56.4073ZM27.5975 4.43104L27.6237 4.45978C14.4565 5.09737 3.99534 17.0451 3.99534 31.5458C3.99534 40.1116 7.64881 48.0213 14.0309 53.2391C14.0323 53.2401 14.0336 53.2412 14.0349 53.2423L52.6733 86.1344L52.9974 86.4103L53.3215 86.1344L91.9315 53.2689C91.9328 53.2679 91.9341 53.2668 91.9354 53.2658C98.3551 48.0251 102.008 40.1153 102.008 31.5429C102.008 16.6374 90.9581 4.43015 77.28 4.43015C67.4072 4.43015 58.5143 10.8644 54.5932 20.7641L52.9978 24.7921L51.4024 20.7641L50.9375 20.9482L51.4023 20.7641C47.4813 10.8664 38.5943 4.43104 28.7296 4.43104H27.5975Z" fill="white" stroke="white"/>
<path d="M43.6792 45.9404L43.1594 44.6616L42.7397 45.9767L41.9942 48.3122H28.5V44.923H39.5242H39.8896L40.0006 44.5748L42.8223 35.7224L50.7263 55.1654L51.264 56.488L51.6689 55.1189L60.0865 26.6583L66.4935 45.6789L66.6081 46.0193H66.9673H77.6679V49.4094H64.5422L60.7754 38.2226L60.2707 36.7236L59.8221 38.2404L51.705 65.6849L43.6792 45.9404Z" fill="white" stroke="white"/>
</svg>
