<svg width="99" height="92" viewBox="0 0 99 92" fill="none" xmlns="http://www.w3.org/2000/svg">
<path d="M86.3904 7.51871H77.741V4.55083C77.741 2.07774 75.5522 0 72.947 0H69.508C66.9028 0 64.714 2.07774 64.714 4.55083V7.51871H34.1823V4.55083C34.1823 2.07774 31.9936 0 29.3883 0H25.9494C23.3441 0 21.1554 2.07774 21.1554 4.55083V7.51871H12.6098C5.62771 7.51871 0 12.8602 0 19.4888V80.0299C0 86.6578 5.62696 92 12.6098 92H61.4842C67.4246 92 73.0515 89.8237 77.3243 85.7676L92.4346 71.4239C96.7074 67.3679 99 62.0264 99 56.3874V19.489C99.0007 12.9598 93.3738 7.51888 86.391 7.51888L86.3904 7.51871ZM7.81612 80.0296V31.656H91.1841V55.7933H71.0715C65.4446 55.7933 60.8592 60.1461 60.8592 65.4876L60.8584 84.5799H12.6092C10.0047 84.5799 7.81595 82.5028 7.81595 80.0297L7.81612 80.0296ZM71.801 80.5243C70.8633 81.4145 69.8208 82.1073 68.6745 82.7006V65.4878C68.6745 64.2016 69.7169 63.2127 71.0712 63.2127H89.2039C88.5787 64.3009 87.8489 65.2905 86.9113 66.1806L71.801 80.5243Z" fill="white"/>
</svg>
